<?xml version="1.0" encoding="UTF-8" standalone="no"?>
<!-- Created with Inkscape (http://www.inkscape.org/) -->

<svg
   width="271.79831mm"
   height="279.19839mm"
   viewBox="0 0 271.79832 279.19839"
   version="1.1"
   id="svg1"
   xml:space="preserve"
   sodipodi:docname="layers.svg"
   inkscape:version="1.4 (e7c3feb100, 2024-10-09)"
   inkscape:export-filename="layer-lotes.svg"
   inkscape:export-xdpi="96"
   inkscape:export-ydpi="96"
   xmlns:inkscape="http://www.inkscape.org/namespaces/inkscape"
   xmlns:sodipodi="http://sodipodi.sourceforge.net/DTD/sodipodi-0.dtd"
   xmlns="http://www.w3.org/2000/svg"
   xmlns:svg="http://www.w3.org/2000/svg"><sodipodi:namedview
     id="namedview1"
     pagecolor="#ffffff"
     bordercolor="#666666"
     borderopacity="1.0"
     inkscape:showpageshadow="2"
     inkscape:pageopacity="0.0"
     inkscape:pagecheckerboard="0"
     inkscape:deskcolor="#d1d1d1"
     inkscape:document-units="mm"
     showguides="true"
     inkscape:zoom="1"
     inkscape:cx="349"
     inkscape:cy="637.5"
     inkscape:window-width="1920"
     inkscape:window-height="1011"
     inkscape:window-x="0"
     inkscape:window-y="0"
     inkscape:window-maximized="1"
     inkscape:current-layer="layer5"><inkscape:page
       x="0"
       y="0"
       width="271.79834"
       height="279.19839"
       id="page2"
       margin="0"
       bleed="0"
       inkscape:export-filename="layer-lotes.png"
       inkscape:export-xdpi="300"
       inkscape:export-ydpi="300" /><sodipodi:guide
       position="186.71636,176.30468"
       orientation="1,0"
       id="guide92"
       inkscape:locked="false" /><sodipodi:guide
       position="196.8757,166.88816"
       orientation="0,-1"
       id="guide93"
       inkscape:locked="false" /><sodipodi:guide
       position="76.825312,83.921321"
       orientation="1,0"
       id="guide94"
       inkscape:locked="false" /><sodipodi:guide
       position="69.719765,84.951384"
       orientation="0,-1"
       id="guide95"
       inkscape:locked="false" /></sodipodi:namedview><defs
     id="defs1"><clipPath
       clipPathUnits="userSpaceOnUse"
       id="clipPath2546-7"><path
         d="m 14.112,14.112 h 566.916 v 813.54 H 14.112 Z"
         transform="translate(0,-2.5000001e-5)"
         id="path2546-4" /></clipPath><clipPath
       clipPathUnits="userSpaceOnUse"
       id="clipPath2538-4"><path
         d="m 14.112,14.112 h 566.916 v 813.54 H 14.112 Z"
         transform="translate(0,-2.5000001e-5)"
         id="path2538-4" /></clipPath><clipPath
       clipPathUnits="userSpaceOnUse"
       id="clipPath2460-8"><path
         d="m 14.112,14.112 h 566.916 v 813.54 H 14.112 Z"
         transform="translate(0,-2.5000001e-5)"
         id="path2460-8" /></clipPath><clipPath
       clipPathUnits="userSpaceOnUse"
       id="clipPath2456-9"><path
         d="m 14.112,14.112 h 566.916 v 813.54 H 14.112 Z"
         transform="translate(0,-2.5000001e-5)"
         id="path2456-1" /></clipPath><clipPath
       clipPathUnits="userSpaceOnUse"
       id="clipPath2452-8"><path
         d="m 14.112,14.112 h 566.916 v 813.54 H 14.112 Z"
         transform="translate(0,-2.5000001e-5)"
         id="path2452-0" /></clipPath><clipPath
       clipPathUnits="userSpaceOnUse"
       id="clipPath2432-9"><path
         d="m 14.112,14.112 h 566.916 v 813.54 H 14.112 Z"
         transform="translate(0,-2.5000001e-5)"
         id="path2432-39" /></clipPath><clipPath
       clipPathUnits="userSpaceOnUse"
       id="clipPath2428-7"><path
         d="m 14.112,14.112 h 566.916 v 813.54 H 14.112 Z"
         transform="translate(0,-2.5000001e-5)"
         id="path2428-9" /></clipPath><clipPath
       clipPathUnits="userSpaceOnUse"
       id="clipPath1686-0"><path
         d="m 14.112,14.112 h 566.916 v 813.54 H 14.112 Z"
         transform="matrix(11.904762,0,0,-11.904762,-168.5,9852.5)"
         id="path1686-6" /></clipPath><clipPath
       clipPathUnits="userSpaceOnUse"
       id="clipPath1684-3"><path
         d="m 14.112,14.112 h 566.916 v 813.54 H 14.112 Z"
         transform="matrix(11.904762,0,0,-11.904762,-168.5,9852.5)"
         id="path1684-9" /></clipPath><clipPath
       clipPathUnits="userSpaceOnUse"
       id="clipPath1680-7"><path
         d="m 14.112,14.112 h 566.916 v 813.54 H 14.112 Z"
         transform="translate(0,-2.5000001e-5)"
         id="path1680-9" /></clipPath><clipPath
       clipPathUnits="userSpaceOnUse"
       id="clipPath971-0"><path
         d="m 14.112,14.112 h 566.916 v 813.54 H 14.112 Z"
         transform="matrix(11.904762,0,0,-11.904762,-168.5,9852.5)"
         id="path971-2" /></clipPath><clipPath
       clipPathUnits="userSpaceOnUse"
       id="clipPath724-7"><path
         d="m 14.112,14.112 h 566.916 v 813.54 H 14.112 Z"
         transform="matrix(11.904762,0,0,-11.904762,-168.5,9852.5)"
         id="path724-04" /></clipPath><clipPath
       clipPathUnits="userSpaceOnUse"
       id="clipPath722-0"><path
         d="m 14.112,14.112 h 566.916 v 813.54 H 14.112 Z"
         transform="matrix(11.904762,0,0,-11.904762,-168.5,9852.5)"
         id="path722-5" /></clipPath></defs><g
     inkscape:groupmode="layer"
     id="layer4"
     inkscape:label="todo"
     transform="matrix(1.0904138,-0.55183942,0.5518413,1.0904114,-67.40762,54.595426)"
     style="stroke-width:1"><g
       inkscape:groupmode="layer"
       id="layer5"
       inkscape:label="lotes v2"
       style="display:inline;stroke-width:1"
       transform="matrix(0.73009132,0.36948731,-0.36948857,0.73009293,69.386103,-14.953474)"><path
         id="path721-2"
         d="M 4199,8589 3596,8342 3090,7896 1536,6319 V 2780"
         style="fill:none;stroke:#000000;stroke-width:1;stroke-linecap:round;stroke-linejoin:round;stroke-miterlimit:10;stroke-dasharray:none;stroke-opacity:1;vector-effect:non-scaling-stroke;-inkscape-stroke:hairline"
         transform="matrix(0.0186771,0.00910736,-0.00910736,0.0186771,116.84538,21.412293)"
         clip-path="url(#clipPath722-0)" /><path
         id="path723-4"
         d="m 3090,7896 -1554,-1577 1,2994 2214,-687 448,-37 -603,-247 z"
         style="fill:none;stroke:#000000;stroke-width:1;stroke-linecap:butt;stroke-linejoin:round;stroke-miterlimit:10;stroke-dasharray:none;stroke-opacity:1;vector-effect:non-scaling-stroke;-inkscape-stroke:hairline"
         transform="matrix(0.0186771,0.00910736,-0.00910736,0.0186771,116.84538,21.412293)"
         clip-path="url(#clipPath724-7)" /><path
         id="path970-8"
         d="M 1541,9314 3755,8625"
         style="fill:none;stroke:#000000;stroke-width:1;stroke-linecap:round;stroke-linejoin:round;stroke-miterlimit:10;stroke-dasharray:none;stroke-opacity:1;vector-effect:non-scaling-stroke;-inkscape-stroke:hairline"
         transform="matrix(0.0186771,0.00910736,-0.00910736,0.0186771,116.84538,21.412293)"
         clip-path="url(#clipPath971-0)" /><path
         id="path1679-6"
         d="m 366.9092,106.1755 -50.7029,20.714 -47.0997,42.1544 -55.9771,57.7514 -69.9202,70.0563 -0.5584,292.5175 31.6906,0.4593 0.613,-279.9634 94.1296,-95.5579 26.457,-26.8584 37.6405,-33.199 103.3791,-42.2343 z"
         style="fill:#c7c7c7;fill-opacity:1;fill-rule:nonzero;stroke:#000000;vector-effect:non-scaling-stroke;-inkscape-stroke:hairline;stroke-width:1;stroke-dasharray:none;stroke-opacity:1"
         transform="matrix(0.22234655,0.10842096,0.10842096,-0.22234655,23.96802,203.89392)"
         clip-path="url(#clipPath1680-7)" /><path
         id="path1683-0"
         d="m 1536,2717 1,-2233 2579,-193 -186,854 -1851,1710 -113,-38 -105,3 -143,41 -126,120 -57,141"
         style="fill:none;stroke:#000000;stroke-width:1;stroke-linecap:round;stroke-linejoin:round;stroke-miterlimit:10;stroke-dasharray:none;stroke-opacity:1;vector-effect:non-scaling-stroke;-inkscape-stroke:hairline"
         transform="matrix(0.0186771,0.00910736,-0.00910736,0.0186771,116.84538,21.412293)"
         clip-path="url(#clipPath1684-3)" /><path
         id="path1685-7"
         d="m 1535,2657 v 930"
         style="fill:none;stroke:#000000;stroke-width:1;stroke-linecap:round;stroke-linejoin:round;stroke-miterlimit:10;stroke-dasharray:none;stroke-opacity:1;vector-effect:non-scaling-stroke;-inkscape-stroke:hairline"
         transform="matrix(0.0186771,0.00910736,-0.00910736,0.0186771,116.84538,21.412293)"
         clip-path="url(#clipPath1686-0)" /><path
         id="path2427-2"
         d="m 344.253,731.451 15.624,71.736 76.104,5.712 3.276,-203.448 -235.704,-34.86 -5.04,8.4 -9.744,8.82 155.484,143.64 -164.64,-152.376 z"
         style="vector-effect:non-scaling-stroke;fill:none;fill-opacity:1;fill-rule:nonzero;stroke:#000000;stroke-width:1;stroke-dasharray:none;-inkscape-stroke:hairline;stroke-opacity:1"
         transform="matrix(0.22234655,0.10842096,0.10842096,-0.22234655,23.96802,203.89392)"
         clip-path="url(#clipPath2428-7)" /><path
         id="path2431-6"
         d="m 439.257,605.451 -235.704,-34.86 1.26,-15.876 -3.948,-10.416 -9.66,-10.08 -16.548,-5.376 v -69.384 l 267.12,12.432 z"
         style="vector-effect:non-scaling-stroke;fill:none;fill-opacity:1;fill-rule:nonzero;stroke:#000000;stroke-width:1;stroke-dasharray:none;-inkscape-stroke:hairline;stroke-opacity:1"
         transform="matrix(0.22234655,0.10842096,0.10842096,-0.22234655,23.96802,203.89392)"
         clip-path="url(#clipPath2432-9)" /><path
         id="path2451-7"
         d="M 441.609,471.891 174.657,459.459 V 338.331 l 89.964,-2.52 79.296,26.796 99.624,-0.756 z"
         style="vector-effect:non-scaling-stroke;fill:none;fill-opacity:1;fill-rule:nonzero;stroke:#000000;stroke-width:1;stroke-dasharray:none;-inkscape-stroke:hairline;stroke-opacity:1"
         transform="matrix(0.22234655,0.10842096,0.10842096,-0.22234655,23.96802,203.89392)"
         clip-path="url(#clipPath2452-8)" /><path
         id="path2455-8"
         d="m 443.541,361.851 -99.624,0.756 -79.296,-26.796 -89.964,2.52 0.252,-28.476 93.492,-94.836 177.492,11.088 z"
         style="vector-effect:non-scaling-stroke;fill:none;fill-opacity:1;fill-rule:nonzero;stroke:#000000;stroke-width:1;stroke-dasharray:none;-inkscape-stroke:hairline;stroke-opacity:1"
         transform="matrix(0.22234655,0.10842096,0.10842096,-0.22234655,23.96802,203.89392)"
         clip-path="url(#clipPath2456-9)" /><path
         id="path2459-3"
         d="m 448.2541,112.9701 -2.3328,113.4504 -177.4808,-11.46 27.1006,-27.5118 37.6405,-33.199 103.3791,-42.2343 z"
         style="vector-effect:non-scaling-stroke;fill:none;fill-opacity:1;fill-rule:nonzero;stroke:#000000;stroke-width:1;stroke-dasharray:none;-inkscape-stroke:hairline;stroke-opacity:1"
         transform="matrix(0.22234655,0.10842096,0.10842096,-0.22234655,23.96802,203.89392)"
         clip-path="url(#clipPath2460-8)" /><path
         id="path2537-3"
         d="m 205.338,560.28 v 0 c 0,17.2346 -13.9902,31.206 -31.248,31.206 -17.2578,0 -31.248,-13.9714 -31.248,-31.206 0,-17.2346 13.9902,-31.206 31.248,-31.206 17.2578,0 31.248,13.9714 31.248,31.206"
         style="vector-effect:non-scaling-stroke;fill:#b8b8b8;fill-opacity:1;fill-rule:nonzero;stroke:#000000;stroke-width:1;stroke-dasharray:none;-inkscape-stroke:hairline;stroke-opacity:1"
         transform="matrix(0.22234655,0.10842096,0.10842096,-0.22234655,23.96802,203.89392)"
         clip-path="url(#clipPath2538-4)" /><path
         id="path2545-0"
         d="m 189.462,560.238 v 0 c 0,8.4897 -6.8823,15.372 -15.372,15.372 -8.4897,0 -15.372,-6.8823 -15.372,-15.372 0,-8.4897 6.8823,-15.372 15.372,-15.372 8.4897,0 15.372,6.8823 15.372,15.372"
         style="vector-effect:non-scaling-stroke;fill:#77b500;fill-opacity:1;fill-rule:nonzero;stroke:#000000;stroke-width:1;stroke-dasharray:none;-inkscape-stroke:hairline;stroke-opacity:1"
         transform="matrix(0.22234655,0.10842096,0.10842096,-0.22234655,23.96802,203.89392)"
         clip-path="url(#clipPath2546-7)" /></g></g></svg>
